<?xml version="1.0" standalone="no"?>
<!DOCTYPE svg PUBLIC "-//W3C//DTD SVG 20010904//EN"
 "http://www.w3.org/TR/2001/REC-SVG-20010904/DTD/svg10.dtd">
<svg version="1.0" xmlns="http://www.w3.org/2000/svg"
 width="16.000000pt" height="16.000000pt" viewBox="0 0 16.000000 16.000000"
 preserveAspectRatio="xMidYMid meet">
<metadata>
Created by potrace 1.11, written by Peter Selinger 2001-2013
</metadata>
<g transform="translate(0.000000,16.000000) scale(0.005333,-0.005333)"
fill="#000000" stroke="none">
<path d="M2340 2976 c-246 -86 -450 -278 -566 -532 -64 -142 -78 -164 -150
-245 -94 -104 -130 -161 -151 -241 -15 -56 -15 -71 -4 -109 27 -91 137 -162
273 -176 88 -9 73 14 -32 48 -108 34 -140 66 -140 140 0 65 37 142 107 220 63
71 75 93 113 208 48 147 133 305 204 379 120 126 335 274 424 292 84 18 91 21
67 30 -34 14 -77 10 -145 -14z"/>
<path d="M641 2795 c-53 -15 -108 -43 -143 -73 -32 -27 -19 -31 40 -11 176 61
399 20 590 -110 112 -76 169 -136 215 -229 41 -84 42 -87 42 -191 l0 -106 -62
-126 c-84 -172 -106 -239 -101 -312 4 -49 9 -63 35 -89 45 -44 105 -48 257
-13 151 34 265 37 321 10 45 -23 58 -57 27 -74 -10 -5 -95 -22 -188 -36 -220
-34 -309 -57 -409 -104 -103 -48 -205 -117 -205 -137 0 -11 5 -14 18 -9 259
104 379 135 611 155 168 15 246 35 290 75 31 29 36 40 36 78 0 52 -26 94 -69
115 -17 9 -96 17 -214 22 -290 14 -362 36 -386 117 -13 43 35 194 111 348 58
118 81 213 69 280 -10 54 -79 121 -205 204 -292 190 -517 262 -680 216z"/>
<path d="M1403 2791 c-65 -41 -72 -102 -18 -156 39 -38 213 -125 251 -125 90
0 51 191 -53 264 -56 39 -133 46 -180 17z"/>
<path d="M1480 1263 c-36 -8 -67 -17 -68 -18 -11 -10 -64 -265 -74 -350 -9
-83 -8 -129 7 -271 15 -138 17 -189 8 -267 -5 -53 -6 -117 -2 -144 4 -26 8
-75 9 -108 1 -107 16 -130 47 -72 16 29 18 65 19 347 1 385 18 532 90 751 24
75 44 139 44 142 0 9 -1 9 -80 -10z"/>
</g>
</svg>
